<?xml version="1.0" encoding="utf-8"?>
<svg xmlns="http://www.w3.org/2000/svg" viewBox="0 0 1024 1024" width="512px" height="512px">
  <ellipse style="stroke: rgb(0, 0, 0); fill: rgb(165, 207, 244); paint-order: stroke; stroke-width: 0px;" cx="512.341" cy="512.65" rx="512" ry="512"/>
  <g data-name="Scalable Vector Graphics file" transform="matrix(1, 0, 0, 1, 307.950287, 256)">
    <path d="M52.83 427.68v-52h20.44l334.83-.08v84.13A52.24 52.24 0 0 1 355.86 512H105.09a52.25 52.25 0 0 1-52.26-52.24z" opacity="1" data-original="#e7e7e9" fill="#e7e7e9"/>
    <path d="M408.1 366v9.62l-334.83.08H26A26 26 0 0 0 .14 399l.43-183.49a26 26 0 0 1 26-26h26.26l355.27-.07z" opacity="1" data-original="#0c98e5" class="" fill="#0c98e5"/>
    <path d="M397.58 74.24a31.35 31.35 0 0 1 10 17.92H345.4a31.35 31.35 0 0 1-31.34-31.34V2.37A31.05 31.05 0 0 1 323 7.92z" opacity="1" data-original="#a3a2a3" fill="#a3a2a3"/>
    <path d="M407.58 92.16a30.49 30.49 0 0 1 .49 5.5v91.79l-355.27.07V62.69A62.7 62.7 0 0 1 115.53 0h186.61a31.12 31.12 0 0 1 11.93 2.37v58.45a31.35 31.35 0 0 0 31.33 31.34z" opacity="1" data-original="#e7e7e9" fill="#e7e7e9"/>
    <path d="M52.83 377.94v49.74H26a26 26 0 0 1-26-26.12A23.59 23.59 0 0 1 .14 399 26 26 0 0 1 26 375.71h26.83z" opacity="1" data-original="#0576c0" fill="#0576c0"/>
    <g fill="#fff">
      <path d="M299.42 336a52.28 52.28 0 1 1 29.24-95.63A10.41 10.41 0 0 1 317 257.63a31.46 31.46 0 1 0-17.58 57.56c14.52 0 21.88-9.9 24.55-21.05h-13.45a10.41 10.41 0 1 1 0-20.81h25.05a10.4 10.4 0 0 1 10.4 10.4C346 314.51 326.83 336 299.42 336zM101.58 336c-14.13 0-27.92-5.92-36.9-15.84a10.4 10.4 0 1 1 15.42-14c5.1 5.63 13.13 9 21.48 9 8.12 0 13.84-4.86 14.68-9.57 1.12-6.27-7.33-10.11-11-11.47-13-4.79-24.51-9.92-25-10.13a11.29 11.29 0 0 1-1.45-.79A26.58 26.58 0 0 1 67 256.94c1.61-11.16 9.77-20.25 21.3-23.72 22.85-6.89 41.66 8.61 42.45 9.28a10.41 10.41 0 0 1-13.34 16c-.34-.28-11.29-8.9-23.1-5.34-5.41 1.63-6.49 5.27-6.7 6.76a5.84 5.84 0 0 0 2.07 5.51c2.94 1.29 12.52 5.42 22.81 9.22 21.1 7.77 26.39 23 24.31 34.65-2.8 15.46-17.61 26.7-35.22 26.7zM197 336a12.31 12.31 0 0 1-11.6-8.24l-28.64-82.5a10.41 10.41 0 0 1 19.66-6.83l20.41 58.79 19.43-58.5a10.41 10.41 0 0 1 19.74 6.57l-27.32 82.31v.1a12.33 12.33 0 0 1-11.6 8.31z" opacity="1" data-original="#ffffff" fill="#ffffff"/>
    </g>
  </g>
</svg>